<svg width="256" height="32" viewBox="0 0 256 32" fill="none" xmlns="http://www.w3.org/2000/svg">
<path d="M251.006 30.3378H250.278L251.366 27.6444H253.187C253.382 27.6444 253.542 27.6667 253.662 27.7067C253.782 27.7467 253.871 27.8044 253.924 27.88C253.982 27.9556 254.004 28.0444 254 28.1511C254 28.2578 253.969 28.3733 253.915 28.5022C253.871 28.6178 253.813 28.7156 253.746 28.8C253.68 28.8844 253.609 28.96 253.529 29.0178C253.449 29.08 253.365 29.1289 253.276 29.1733C253.187 29.2133 253.098 29.2489 253.005 29.2756L253.458 30.3422H252.605L252.188 29.3511H251.393L250.993 30.3422L251.006 30.3378ZM253.187 28.4933C253.209 28.44 253.218 28.3956 253.218 28.36C253.218 28.3244 253.209 28.2933 253.182 28.2711C253.156 28.2489 253.12 28.2311 253.067 28.2222C253.014 28.2133 252.947 28.2044 252.863 28.2044H251.868L251.637 28.7822H252.632C252.716 28.7822 252.792 28.7778 252.849 28.7644C252.912 28.7556 252.96 28.7378 253.005 28.7156C253.049 28.6933 253.085 28.6622 253.111 28.6267C253.138 28.5911 253.165 28.5467 253.187 28.4933ZM251.508 32C249.447 32 248.079 30.6667 248.461 29.0311C248.843 27.3956 250.829 26.0622 252.889 26.0622C254.95 26.0622 256.318 27.3911 255.936 29.0311C255.554 30.6667 253.569 32 251.508 32ZM252.756 26.64C250.984 26.64 249.292 27.7156 248.985 29.0356C248.679 30.3556 249.869 31.4311 251.641 31.4311C253.413 31.4311 255.106 30.3556 255.412 29.0356C255.718 27.7156 254.528 26.64 252.756 26.64ZM241.16 8.88L238.091 21.6444L228.218 9.83111L227.45 8.88H220.606L215.054 32H223.506L226.579 19.2L236.434 31.08L237.176 31.9956H244.02L249.572 8.87556H241.16V8.88ZM124.91 8.89333C122.712 8.89333 120.593 9.89778 119.243 11.5867L102.882 31.9822H112.31L116.401 26.8844H129.751L131.394 31.9822H140.233L132.802 8.89333H124.915H124.91ZM128.112 21.7956L120.567 21.6844L125.865 15.08H125.954L128.112 21.7911V21.7956ZM32.7764 8.86222L19.5593 20.9733L12.551 8.86222H5.55156L0 31.9822H8.4517L10.921 21.7022L17.2854 31.9822L28.5928 21.8667L26.2256 31.9822H34.6906L40.2422 8.86667H32.7809L32.7764 8.86222ZM156.026 8.86222H147.574L142.022 31.9778H159.738L161.231 25.76H151.966L156.026 8.86222ZM175.905 8.86222H167.453L161.901 31.9778H179.618L181.11 25.76H171.845L175.905 8.86222ZM65.5973 8.89333L61.8178 24.6222C61.6623 25.2622 60.7164 25.76 60.0058 25.76H48.9604C48.6006 25.76 48.3031 25.6222 48.1965 25.4844C48.1698 25.4533 48.121 25.3911 48.1654 25.2178L52.087 8.89333H43.6353L39.8025 24.84C39.5405 25.9422 39.5849 27.0533 39.9313 28.0489C40.7574 30.4178 43.2045 31.9511 46.1624 31.9511H61.045C64.2827 31.9511 68.4663 29.9289 69.8431 26.1733C69.932 25.9289 70.0075 25.6844 70.0652 25.4356L74.0401 8.89333H65.5884H65.5973ZM216.102 12.7644C215.276 10.3956 212.829 8.86222 209.871 8.86222H194.989C191.751 8.86222 187.567 10.8844 186.191 14.64C186.102 14.8844 186.026 15.1289 185.969 15.3778L183.69 24.8622C183.428 25.9644 183.473 27.0711 183.819 28.0711C184.645 30.4444 187.092 31.9778 190.05 31.9778H204.933C208.17 31.9778 212.358 29.9511 213.731 26.2C213.82 25.9556 213.895 25.7111 213.957 25.4578L216.236 15.9733C216.502 14.8711 216.458 13.7644 216.107 12.7644H216.102ZM207.073 15.0578C207.433 15.0578 207.731 15.1956 207.837 15.3333C207.864 15.3689 207.913 15.4267 207.868 15.6L205.692 24.6533C205.537 25.2933 204.591 25.7911 203.88 25.7911H192.835C192.475 25.7911 192.177 25.6533 192.071 25.5156C192.044 25.48 191.995 25.4222 192.04 25.2489L194.216 16.1956C194.371 15.5556 195.317 15.0578 196.028 15.0578H207.073ZM96.8859 23.1867C99.7239 22.4489 102.087 20.44 103.21 17.8133C103.921 16.1511 104.059 14.4089 103.592 12.9022C102.917 10.7244 101.056 9.27556 98.4892 8.93333C98.1295 8.88444 97.7564 8.86222 97.3789 8.86222H77.2556L71.6996 31.9778H80.1513L84.215 15.0533H94.5765C95.3492 15.0533 95.407 15.3956 95.4292 15.5111C95.5313 16.08 95.0073 17.1467 93.8081 17.5867L85.1077 20.6311L92.0139 31.9778H102.104L96.7793 23.2133C96.8148 23.2044 96.8504 23.1956 96.8904 23.1867H96.8859ZM213.584 0H202.899L192.084 6.22222H212.092L213.584 0Z" fill="#10345C"/>
</svg>
