<svg width="100" height="54" viewBox="0 0 100 54" fill="none" xmlns="http://www.w3.org/2000/svg">
<g clip-path="url(#clip0_3912_3)">
<path d="M80 1H20C9.50659 1 1 9.50659 1 20C1 30.4934 9.50659 39 20 39H80C90.4934 39 99 30.4934 99 20C99 9.50659 90.4934 1 80 1Z" fill="white"/>
<path d="M80 1H20C9.50659 1 1 9.50659 1 20C1 30.4934 9.50659 39 20 39H80C90.4934 39 99 30.4934 99 20C99 9.50659 90.4934 1 80 1Z" stroke="#1F436E" stroke-width="2"/>
<path d="M50.5 54L41.4067 39H59.5933L50.5 54Z" fill="#1F436E"/>
<path d="M91.3419 24.4806H91.1001L91.4614 23.6389H92.066C92.1308 23.6389 92.1839 23.6458 92.2237 23.6583C92.2636 23.6708 92.2931 23.6889 92.3108 23.7125C92.3299 23.7361 92.3373 23.7639 92.3358 23.7972C92.3358 23.8306 92.3255 23.8667 92.3078 23.9069C92.2931 23.9431 92.2739 23.9736 92.2518 24C92.2296 24.0264 92.2061 24.05 92.1795 24.0681C92.153 24.0875 92.1249 24.1028 92.0955 24.1167C92.066 24.1292 92.0365 24.1403 92.0055 24.1486L92.1559 24.4819H91.8728L91.7342 24.1722H91.4702L91.3375 24.4819L91.3419 24.4806ZM92.066 23.9042C92.0733 23.8875 92.0763 23.8736 92.0763 23.8625C92.0763 23.8514 92.0733 23.8417 92.0645 23.8347C92.0556 23.8278 92.0438 23.8222 92.0261 23.8194C92.0084 23.8167 91.9863 23.8139 91.9583 23.8139H91.628L91.5513 23.9944H91.8816C91.9096 23.9944 91.9347 23.9931 91.9539 23.9889C91.9745 23.9861 91.9908 23.9806 92.0055 23.9736C92.0203 23.9667 92.032 23.9569 92.0409 23.9458C92.0497 23.9347 92.0586 23.9208 92.066 23.9042ZM91.5086 25C90.8243 25 90.3701 24.5833 90.4969 24.0722C90.6238 23.5611 91.2829 23.1444 91.9672 23.1444C92.6514 23.1444 93.1056 23.5597 92.9788 24.0722C92.8519 24.5833 92.1928 25 91.5086 25ZM91.9229 23.325C91.3345 23.325 90.7727 23.6611 90.671 24.0736C90.5692 24.4861 90.9644 24.8222 91.5528 24.8222C92.1412 24.8222 92.703 24.4861 92.8048 24.0736C92.9065 23.6611 92.5113 23.325 91.9229 23.325ZM88.0726 17.775L87.0537 21.7639L83.7756 18.0722L83.5205 17.775H81.248L79.4047 25H82.211L83.2314 21L86.5036 24.7125L86.7499 24.9986H89.0223L90.8656 17.7736H88.0726V17.775ZM49.4741 17.7792C48.7441 17.7792 48.0407 18.0931 47.5925 18.6208L42.1599 24.9944H45.2906L46.6487 23.4014H51.0814L51.6271 24.9944H54.5616L52.0945 17.7792H49.4756H49.4741ZM50.5373 21.8111L48.0319 21.7764L49.7911 19.7125H49.8206L50.5373 21.8097V21.8111ZM18.8828 17.7694L14.4943 21.5542L12.1673 17.7694H9.84329L8 24.9944H10.8062L11.6261 21.7819L13.7393 24.9944L17.4937 21.8333L16.7077 24.9944H19.5184L21.3617 17.7708H18.8843L18.8828 17.7694ZM59.8054 17.7694H56.9992L55.1559 24.9931H61.0382L61.5337 23.05H58.4576L59.8054 17.7694ZM66.4058 17.7694H63.5996L61.7563 24.9931H67.6386L68.1341 23.05H65.058L66.4058 17.7694ZM29.7804 17.7792L28.5254 22.6944C28.4738 22.8944 28.1597 23.05 27.9238 23.05H24.2564C24.1369 23.05 24.0381 23.0069 24.0027 22.9639C23.9939 22.9542 23.9777 22.9347 23.9924 22.8806L25.2945 17.7792H22.4883L21.2157 22.7625C21.1287 23.1069 21.1434 23.4542 21.2584 23.7653C21.5327 24.5056 22.3452 24.9847 23.3274 24.9847H28.2689C29.3439 24.9847 30.733 24.3528 31.1901 23.1792C31.2196 23.1028 31.2447 23.0264 31.2638 22.9486L32.5836 17.7792H29.7774H29.7804ZM79.7528 18.9889C79.4785 18.2486 78.666 17.7694 77.6838 17.7694H72.7423C71.6673 17.7694 70.2782 18.4014 69.8211 19.575C69.7916 19.6514 69.7665 19.7278 69.7474 19.8056L68.9909 22.7694C68.9039 23.1139 68.9186 23.4597 69.0336 23.7722C69.3079 24.5139 70.1204 24.9931 71.1026 24.9931H76.0441C77.1191 24.9931 78.5096 24.3597 78.9653 23.1875C78.9948 23.1111 79.0199 23.0347 79.0405 22.9556L79.797 19.9917C79.8855 19.6472 79.8707 19.3014 79.7542 18.9889H79.7528ZM76.7548 19.7056C76.8743 19.7056 76.9731 19.7486 77.0085 19.7917C77.0173 19.8028 77.0335 19.8208 77.0188 19.875L76.2962 22.7042C76.2446 22.9042 75.9305 23.0597 75.6946 23.0597H72.0272C71.9077 23.0597 71.8089 23.0167 71.7735 22.9736C71.7647 22.9625 71.7484 22.9444 71.7632 22.8903L72.4858 20.0611C72.5374 19.8611 72.8515 19.7056 73.0874 19.7056H76.7548ZM40.1692 22.2458C41.1114 22.0153 41.8959 21.3875 42.269 20.5667C42.505 20.0472 42.5507 19.5028 42.3958 19.0319C42.1717 18.3514 41.5538 17.8986 40.7015 17.7917C40.582 17.7764 40.4582 17.7694 40.3328 17.7694H33.6513L31.8065 24.9931H34.6127L35.962 19.7042H39.4023C39.6589 19.7042 39.6781 19.8111 39.6855 19.8472C39.7194 20.025 39.5454 20.3583 39.1472 20.4958L36.2584 21.4472L38.5515 24.9931H41.9018L40.1338 22.2542C40.1456 22.2514 40.1574 22.2486 40.1706 22.2458H40.1692ZM78.9166 15H75.3687L71.7779 16.9444H78.4212L78.9166 15Z" fill="#10345C"/>
</g>
<defs>
<clipPath id="clip0_3912_3">
<rect width="100" height="54" fill="white"/>
</clipPath>
</defs>
</svg>
